<svg preserveAspectRatio="none" overflow="visible" style="display: block;" width="430.499" height="17.3205" viewBox="0 0 430.499 17.3205" fill="none" xmlns="http://www.w3.org/2000/svg">
<path id="Line 371" d="M0 8.66025L15 17.3205V0L0 8.66025ZM2.98957 8.66025V10.1603H4.98262V8.66025V7.16025H2.98957V8.66025ZM6.97567 8.66025V10.1603H8.96872V8.66025V7.16025H6.97567V8.66025ZM10.9618 8.66025V10.1603H12.9548V8.66025V7.16025H10.9618V8.66025ZM14.9479 8.66025V10.1603H16.9409V8.66025V7.16025H14.9479V8.66025ZM18.934 8.66025V10.1603H20.927V8.66025V7.16025H18.934V8.66025ZM22.9201 8.66025V10.1603H24.9131V8.66025V7.16025H22.9201V8.66025ZM26.9062 8.66025V10.1603H28.8992V8.66025V7.16025H26.9062V8.66025ZM30.8923 8.66025V10.1603H32.8853V8.66025V7.16025H30.8923V8.66025ZM34.8784 8.66025V10.1603H36.8714V8.66025V7.16025H34.8784V8.66025ZM38.8645 8.66025V10.1603H40.8575V8.66025V7.16025H38.8645V8.66025ZM42.8506 8.66025V10.1603H44.8436V8.66025V7.16025H42.8506V8.66025ZM46.8367 8.66025V10.1603H48.8297V8.66025V7.16025H46.8367V8.66025ZM50.8228 8.66025V10.1603H52.8158V8.66025V7.16025H50.8228V8.66025ZM54.8089 8.66025V10.1603H56.8019V8.66025V7.16025H54.8089V8.66025ZM58.795 8.66025V10.1603H60.788V8.66025V7.16025H58.795V8.66025ZM62.7811 8.66025V10.1603H64.7741V8.66025V7.16025H62.7811V8.66025ZM66.7672 8.66025V10.1603H68.7602V8.66025V7.16025H66.7672V8.66025ZM70.7533 8.66025V10.1603H72.7463V8.66025V7.16025H70.7533V8.66025ZM74.7393 8.66025V10.1603H76.7324V8.66025V7.16025H74.7393V8.66025ZM78.7254 8.66025V10.1603H80.7185V8.66025V7.16025H78.7254V8.66025ZM82.7115 8.66025V10.1603H84.7046V8.66025V7.16025H82.7115V8.66025ZM86.6976 8.66025V10.1603H88.6907V8.66025V7.16025H86.6976V8.66025ZM90.6837 8.66025V10.1603H92.6768V8.66025V7.16025H90.6837V8.66025ZM94.6698 8.66025V10.1603H96.6629V8.66025V7.16025H94.6698V8.66025ZM98.6559 8.66025V10.1603H100.649V8.66025V7.16025H98.6559V8.66025ZM102.642 8.66025V10.1603H104.635V8.66025V7.16025H102.642V8.66025ZM106.628 8.66025V10.1603H108.621V8.66025V7.16025H106.628V8.66025ZM110.614 8.66025V10.1603H112.607V8.66025V7.16025H110.614V8.66025ZM114.6 8.66025V10.1603H116.593V8.66025V7.16025H114.6V8.66025ZM118.586 8.66025V10.1603H120.579V8.66025V7.16025H118.586V8.66025ZM122.573 8.66025V10.1603H124.566V8.66025V7.16025H122.573V8.66025ZM126.559 8.66025V10.1603H128.552V8.66025V7.16025H126.559V8.66025ZM130.545 8.66025V10.1603H132.538V8.66025V7.16025H130.545V8.66025ZM134.531 8.66025V10.1603H136.524V8.66025V7.16025H134.531V8.66025ZM138.517 8.66025V10.1603H140.51V8.66025V7.16025H138.517V8.66025ZM142.503 8.66025V10.1603H144.496V8.66025V7.16025H142.503V8.66025ZM146.489 8.66025V10.1603H148.482V8.66025V7.16025H146.489V8.66025ZM150.475 8.66025V10.1603H152.468V8.66025V7.16025H150.475V8.66025ZM154.461 8.66025V10.1603H156.454V8.66025V7.16025H154.461V8.66025ZM158.447 8.66025V10.1603H160.44V8.66025V7.16025H158.447V8.66025ZM162.433 8.66025V10.1603H164.426V8.66025V7.16025H162.433V8.66025ZM166.419 8.66025V10.1603H168.413V8.66025V7.16025H166.419V8.66025ZM170.406 8.66025V10.1603H172.399V8.66025V7.16025H170.406V8.66025ZM174.392 8.66025V10.1603H176.385V8.66025V7.16025H174.392V8.66025ZM178.378 8.66025V10.1603H180.371V8.66025V7.16025H178.378V8.66025ZM182.364 8.66025V10.1603H184.357V8.66025V7.16025H182.364V8.66025ZM186.35 8.66025V10.1603H188.343V8.66025V7.16025H186.35V8.66025ZM190.336 8.66025V10.1603H192.329V8.66025V7.16025H190.336V8.66025ZM194.322 8.66025V10.1603H196.315V8.66025V7.16025H194.322V8.66025ZM198.308 8.66025V10.1603H200.301V8.66025V7.16025H198.308V8.66025ZM202.294 8.66025V10.1603H204.287V8.66025V7.16025H202.294V8.66025ZM206.28 8.66025V10.1603H208.273V8.66025V7.16025H206.28V8.66025ZM210.266 8.66025V10.1603H212.259V8.66025V7.16025H210.266V8.66025ZM214.252 8.66025V10.1603H216.246V8.66025V7.16025H214.252V8.66025ZM218.239 8.66025V10.1603H220.232V8.66025V7.16025H218.239V8.66025ZM222.225 8.66025V10.1603H224.218V8.66025V7.16025H222.225V8.66025ZM226.211 8.66025V10.1603H228.204V8.66025V7.16025H226.211V8.66025ZM230.197 8.66025V10.1603H232.19V8.66025V7.16025H230.197V8.66025ZM234.183 8.66025V10.1603H236.176V8.66025V7.16025H234.183V8.66025ZM238.169 8.66025V10.1603H240.162V8.66025V7.16025H238.169V8.66025ZM242.155 8.66025V10.1603H244.148V8.66025V7.16025H242.155V8.66025ZM246.141 8.66025V10.1603H248.134V8.66025V7.16025H246.141V8.66025ZM250.127 8.66025V10.1603H252.12V8.66025V7.16025H250.127V8.66025ZM254.113 8.66025V10.1603H256.106V8.66025V7.16025H254.113V8.66025ZM258.099 8.66025V10.1603H260.092V8.66025V7.16025H258.099V8.66025ZM262.086 8.66025V10.1603H264.079V8.66025V7.16025H262.086V8.66025ZM266.072 8.66025V10.1603H268.065V8.66025V7.16025H266.072V8.66025ZM270.058 8.66025V10.1603H272.051V8.66025V7.16025H270.058V8.66025ZM274.044 8.66025V10.1603H276.037V8.66025V7.16025H274.044V8.66025ZM278.03 8.66025V10.1603H280.023V8.66025V7.16025H278.03V8.66025ZM282.016 8.66025V10.1603H284.009V8.66025V7.16025H282.016V8.66025ZM286.002 8.66025V10.1603H287.995V8.66025V7.16025H286.002V8.66025ZM289.988 8.66025V10.1603H291.981V8.66025V7.16025H289.988V8.66025ZM293.974 8.66025V10.1603H295.967V8.66025V7.16025H293.974V8.66025ZM297.96 8.66025V10.1603H299.953V8.66025V7.16025H297.96V8.66025ZM301.946 8.66025V10.1603H303.939V8.66025V7.16025H301.946V8.66025ZM305.932 8.66025V10.1603H307.925V8.66025V7.16025H305.932V8.66025ZM309.919 8.66025V10.1603H311.912V8.66025V7.16025H309.919V8.66025ZM313.905 8.66025V10.1603H315.898V8.66025V7.16025H313.905V8.66025ZM317.891 8.66025V10.1603H319.884V8.66025V7.16025H317.891V8.66025ZM321.877 8.66025V10.1603H323.87V8.66025V7.16025H321.877V8.66025ZM325.863 8.66025V10.1603H327.856V8.66025V7.16025H325.863V8.66025ZM329.849 8.66025V10.1603H331.842V8.66025V7.16025H329.849V8.66025ZM333.835 8.66025V10.1603H335.828V8.66025V7.16025H333.835V8.66025ZM337.821 8.66025V10.1603H339.814V8.66025V7.16025H337.821V8.66025ZM341.807 8.66025V10.1603H343.8V8.66025V7.16025H341.807V8.66025ZM345.793 8.66025V10.1603H347.786V8.66025V7.16025H345.793V8.66025ZM349.779 8.66025V10.1603H351.772V8.66025V7.16025H349.779V8.66025ZM353.765 8.66025V10.1603H355.758V8.66025V7.16025H353.765V8.66025ZM357.752 8.66025V10.1603H359.745V8.66025V7.16025H357.752V8.66025ZM361.738 8.66025V10.1603H363.731V8.66025V7.16025H361.738V8.66025ZM365.724 8.66025V10.1603H367.717V8.66025V7.16025H365.724V8.66025ZM369.71 8.66025V10.1603H371.703V8.66025V7.16025H369.71V8.66025ZM373.696 8.66025V10.1603H375.689V8.66025V7.16025H373.696V8.66025ZM377.682 8.66025V10.1603H379.675V8.66025V7.16025H377.682V8.66025ZM381.668 8.66025V10.1603H383.661V8.66025V7.16025H381.668V8.66025ZM385.654 8.66025V10.1603H387.647V8.66025V7.16025H385.654V8.66025ZM389.64 8.66025V10.1603H391.633V8.66025V7.16025H389.64V8.66025ZM393.626 8.66025V10.1603H395.619V8.66025V7.16025H393.626V8.66025ZM397.612 8.66025V10.1603H399.605V8.66025V7.16025H397.612V8.66025ZM401.598 8.66025V10.1603H403.591V8.66025V7.16025H401.598V8.66025ZM405.585 8.66025V10.1603H407.578V8.66025V7.16025H405.585V8.66025ZM409.571 8.66025V10.1603H411.564V8.66025V7.16025H409.571V8.66025ZM413.557 8.66025V10.1603H415.55V8.66025V7.16025H413.557V8.66025ZM417.543 8.66025V10.1603H419.536V8.66025V7.16025H417.543V8.66025ZM421.529 8.66025V10.1603H423.522V8.66025V7.16025H421.529V8.66025ZM425.515 8.66025V10.1603H427.508V8.66025V7.16025H425.515V8.66025ZM429.501 8.66025V10.1603H430.499V8.66025V7.16025H429.501V8.66025Z" fill="#0795FF"/>
</svg>
