<svg preserveAspectRatio="none" overflow="visible" style="display: block;" width="314.174" height="314.616" viewBox="0 0 314.174 314.616" fill="none" xmlns="http://www.w3.org/2000/svg">
<g id="Frame 1000008152">
<mask id="path-1-inside-1_0_5" fill="white">
<rect y="0.442428" width="314.174" height="314.174" rx="7.07874"/>
</mask>
<rect y="0.442428" width="314.174" height="314.174" rx="7.07874" fill="white"/>
<rect y="0.442428" width="314.174" height="314.174" rx="7.07874" stroke="#69A13B" stroke-width="292.938" stroke-dasharray="0.88 0.88" mask="url(#path-1-inside-1_0_5)"/>
<path id="Line 146" d="M2.304 125.766C2.40069 125.725 2.52743 125.768 2.62375 125.828C2.65394 125.846 2.63866 125.928 2.65949 125.944C2.70025 125.976 2.73822 125.936 2.7785 125.974C2.79185 125.987 2.77523 126.117 2.78923 126.128C2.86592 126.185 2.93848 126.152 3.01618 126.18C3.39887 126.316 3.77506 126.365 4.16244 126.424C4.29017 126.444 4.44544 126.561 4.57737 126.51C4.59277 126.504 4.58359 126.39 4.58652 126.38C4.63248 126.236 4.6172 126.467 4.64721 126.497C4.76631 126.618 4.89875 126.629 5.01337 126.585C5.06213 126.565 5.01324 126.339 5.06234 126.466C5.06575 126.475 5.05338 126.596 5.06675 126.609C5.09708 126.638 5.15461 126.616 5.17812 126.626C5.22341 126.645 5.23091 126.644 5.27375 126.645C5.33232 126.648 5.40199 126.708 5.46483 126.681C5.47824 126.675 5.46049 126.55 5.48188 126.529C5.50329 126.508 5.55993 126.519 5.57903 126.548C5.59813 126.577 5.59 126.675 5.59338 126.697C5.62119 126.886 5.68671 126.624 5.69514 126.618C5.84885 126.508 5.98066 126.657 6.12494 126.656C6.23448 126.656 6.3516 126.607 6.45582 126.613C6.57999 126.622 6.68523 126.689 6.80586 126.678C6.81859 126.676 6.80367 126.53 6.81922 126.529C6.98441 126.512 7.14846 126.528 7.31294 126.626C7.32943 126.636 7.30818 126.765 7.32465 126.782C7.42555 126.888 7.58521 127.141 7.64513 126.582C7.71348 126.604 7.79646 126.627 7.8576 126.739C7.89703 126.812 7.85874 126.952 7.90717 126.892C7.91809 126.879 7.90388 126.756 7.92026 126.746C7.98923 126.701 8.06457 126.741 8.1328 126.677C8.14668 126.664 8.14289 126.555 8.14682 126.535C8.17986 126.375 8.23487 126.639 8.24687 126.658C8.33818 126.802 8.40487 126.745 8.48994 126.749C8.50968 126.75 8.48635 126.602 8.50534 126.598C8.60387 126.577 8.70592 126.59 8.80239 126.655C8.82385 126.67 8.80412 126.795 8.81437 126.809C8.85958 126.867 8.86961 126.63 8.91297 126.681C8.92211 126.692 8.91696 126.799 8.91863 126.811C8.94473 126.996 8.9674 126.734 8.97412 126.728C9.05903 126.649 9.11331 126.923 9.19534 126.884C9.20515 126.879 9.18302 126.743 9.21061 126.737C9.39439 126.7 9.58876 126.737 9.77068 126.846C9.79896 126.863 9.77877 126.965 9.78055 126.977C9.80956 127.174 9.82833 126.911 9.83755 126.901C9.91031 126.829 9.97827 127.05 10.0277 126.736C10.3358 126.845 10.6426 126.669 10.9481 126.95C10.952 126.953 10.9451 127.083 10.9528 127.089C11.0461 127.162 11.0282 126.96 11.09 126.714C11.1055 126.652 11.1529 126.949 11.1571 126.971C11.1723 127.052 11.1565 127.245 11.1616 127.26C11.2039 127.383 11.197 126.744 11.254 126.744C11.2558 126.745 11.2483 126.863 11.2531 126.874C11.268 126.911 11.2827 126.864 11.2973 126.905C11.3306 126.998 11.3424 127.309 11.3933 127.128C11.3997 127.105 11.3899 126.742 11.4408 126.76C11.4611 126.767 11.551 126.761 11.5761 126.784C11.6013 126.807 11.584 126.924 11.5858 126.929C11.6536 127.083 11.6279 127.147 11.6618 127.376C11.6958 127.603 11.6864 127.061 11.7002 127C11.7141 126.94 11.7638 127.067 11.776 127.111C11.7882 127.155 11.7729 127.23 11.7838 127.255C11.8557 127.418 11.8154 126.985 11.8391 126.899C11.895 126.695 11.9385 127.098 11.9897 127.137C12.0035 127.148 11.9922 127.056 12.0046 127.047C12.0534 127.015 12.0828 127.14 12.1383 127.025C12.1474 127.006 12.1923 126.764 12.2214 126.942C12.2255 126.968 12.2138 127.068 12.2346 127.09C12.2657 127.124 12.3217 127.146 12.3551 127.112C12.3798 127.088 12.3515 126.922 12.3826 126.974C12.3964 126.997 12.3708 127.093 12.3967 127.128C12.4225 127.163 12.4885 127.159 12.5135 127.156C12.5386 127.152 12.5249 127.027 12.5269 127.019C12.5392 126.97 12.5872 126.91 12.5915 126.91C12.8058 126.895 13.0033 127.106 13.212 127.036C13.2283 127.031 13.2174 126.898 13.2199 126.896C13.276 126.841 13.2318 127.192 13.2709 127.31C13.2653 127.042 13.2884 127.09 13.3279 127.061C13.3469 127.046 13.3365 126.943 13.3383 126.932C13.3665 126.774 13.3861 126.978 13.3912 127.02C13.4099 127.173 13.4302 126.992 13.4429 127.094C13.4556 127.196 13.4264 127.347 13.4643 127.345C13.4749 127.249 13.4468 126.998 13.4755 126.957C13.584 126.803 13.7865 127 13.8737 127.021C13.9607 127.041 13.9888 127.024 14.0395 127.058C14.1311 127.121 14.0976 126.935 14.1545 126.85C14.2115 126.764 14.1838 127.222 14.192 127.321C14.2 127.419 14.2088 127.318 14.2188 127.372C14.2288 127.426 14.2072 127.493 14.2307 127.514C14.2542 127.534 14.3184 127.359 14.3267 127.256C14.3443 127.038 14.3154 126.809 14.3775 126.889C14.3811 126.894 14.3695 127.014 14.3832 127.026C14.4919 127.119 14.6048 127.125 14.7134 127.207C14.7283 127.218 14.715 127.352 14.7237 127.361C14.8142 127.446 14.7818 127.22 14.8314 126.969C14.8203 127.303 14.8477 127.508 14.9164 127.51C14.9577 127.511 14.9506 127.365 14.9773 127.262C14.9853 127.231 15.0145 127.332 15.0198 127.263C15.0373 127.039 15.0097 126.788 15.0805 126.888C15.0837 126.892 15.0738 127.015 15.0845 127.023C15.1539 127.071 15.1622 126.837 15.2372 126.808C15.296 126.786 15.4006 126.929 15.4675 126.952C15.4661 127.328 15.5293 127.242 15.555 126.983C15.5984 126.993 15.6454 126.979 15.6873 127.015C15.7018 127.027 15.6923 127.136 15.6941 127.147C15.7221 127.332 15.741 127.08 15.7503 127.07C15.852 126.974 15.9348 127.165 16.0318 126.978C16.0352 126.971 16.0408 126.71 16.0667 126.901C16.0684 126.914 16.0364 127.033 16.082 127.042C16.1276 127.051 16.2137 127.191 16.277 127.07C16.2924 127.041 16.3311 126.829 16.3623 126.995C16.3664 127.017 16.3619 127.092 16.3679 127.134C16.3872 127.266 16.3978 127.003 16.4205 127.227C16.4433 127.451 16.4906 127.618 16.5545 127.464C16.5565 127.459 16.5716 127.25 16.5917 127.254C16.6238 127.259 16.6693 127.303 16.7028 127.301C16.7189 127.301 16.7086 127.171 16.7114 127.168C16.8192 127.096 16.8959 127.211 17.0115 127.262C17.0326 127.271 17.0935 127.094 17.1345 127.234C17.1795 127.387 17.1332 128.024 17.2367 127.873C17.2784 127.812 17.3313 127.004 17.4063 127.422C17.5517 127.319 17.6862 127.533 17.832 127.385C17.8386 127.378 17.8593 127.153 17.8748 127.156C17.8977 127.161 17.9102 127.266 17.9266 127.273C17.9951 127.305 18.0577 127.215 18.1238 127.229C18.1488 127.234 18.1401 127.343 18.17 127.349C18.1998 127.355 18.2198 127.211 18.2603 127.281C18.2909 127.333 18.3214 127.627 18.362 127.661C18.3636 127.372 18.3915 127.378 18.441 127.301C18.4505 127.286 18.4403 127.186 18.4448 127.173C18.4632 127.121 18.4801 127.205 18.4976 127.148C18.5018 127.135 18.502 127.036 18.5055 127.019C18.5349 126.874 18.5834 127.096 18.5917 127.135C18.6237 127.282 18.6386 127.153 18.6631 127.211C18.6875 127.269 18.651 127.341 18.6795 127.377C18.7388 127.449 18.8148 127.433 18.875 127.438C18.899 127.439 18.8826 127.307 18.886 127.304C18.9356 127.271 18.9858 127.411 19.0133 127.148C19.0477 127.828 19.0432 127.082 19.1142 127.218C19.1197 127.229 19.1269 127.551 19.1054 127.598C19.084 127.645 19.0514 127.545 19.0217 127.618C19.0146 127.635 18.9743 127.937 18.9688 127.955C18.9256 128.097 18.9195 127.617 18.9172 127.591C18.8913 127.306 18.842 127.63 18.829 127.653C18.7696 127.756 18.7191 127.688 18.6694 127.761C18.6369 127.809 18.6337 128.123 18.6082 128.114C18.5233 128.082 18.4937 127.643 18.4138 128.024C18.3966 128.105 18.4137 128.449 18.3522 128.178C18.3484 128.161 18.3028 127.914 18.2764 128.07C18.2731 128.09 18.2732 128.19 18.2688 128.199C18.2396 128.253 18.2201 128.173 18.1882 128.211C18.1563 128.25 18.118 128.307 18.0816 128.273C18.0597 128.252 18.0316 128.066 18.0211 128.02C17.9914 127.888 17.9597 128.104 17.9413 127.945C17.9228 127.785 17.959 127.541 17.9104 127.438C17.9086 127.698 17.9045 127.965 17.9016 128.227C17.7952 128.218 17.6905 128.134 17.5838 128.145C17.5705 128.147 17.5841 128.287 17.5699 128.292C17.51 128.314 17.4577 128.215 17.3957 128.254C17.3476 128.286 17.2949 128.434 17.2447 128.471C17.214 128.173 17.1394 128.274 17.0852 128.247C17.0663 128.238 17.0675 128.158 17.054 128.132C17.0031 128.036 17.027 128.3 17.013 128.341C16.9532 128.518 16.948 127.922 16.8774 127.937C16.8737 127.937 16.828 128.255 16.8217 128.275C16.7817 128.404 16.8151 128.164 16.79 128.141C16.7443 128.098 16.7126 128.022 16.6589 128.115C16.6433 128.142 16.6058 128.34 16.5754 128.187C16.5714 128.167 16.5736 128.062 16.5704 128.056C16.5122 127.954 16.5107 128.283 16.4774 128.395C16.4441 128.507 16.3927 128.279 16.3823 128.214C16.3549 128.044 16.4032 128.141 16.4047 128.124C16.4221 127.926 16.3847 127.96 16.356 127.943C16.3519 127.62 16.3118 127.639 16.3263 127.927C16.328 127.959 16.3503 127.929 16.356 127.943C16.3309 128.261 16.2869 128.301 16.2383 128.005C16.2155 127.866 16.237 127.704 16.1679 127.763C16.1365 127.79 16.1487 128.013 16.121 128.073C16.0577 128.212 15.9756 128.004 15.9103 128.037C15.8867 128.049 15.9097 128.171 15.8936 128.183C15.8506 128.216 15.8128 128.125 15.7697 128.171C15.7658 128.176 15.7753 128.303 15.7619 128.305C15.6603 128.32 15.5718 128.238 15.4657 128.236C15.4145 128.235 15.3228 128.305 15.2697 128.291C15.1777 128.267 15.0645 128.082 14.9858 128.127C14.9346 128.156 14.9458 128.283 14.9238 128.37C14.8814 128.539 14.8064 128.237 14.7963 128.19C14.796 128.189 14.8401 128.158 14.8165 128.093C14.8029 127.956 14.7968 128.19 14.7963 128.19C14.7896 128.16 14.7015 128.131 14.684 128.155C14.6745 128.169 14.6798 128.29 14.6748 128.294C14.557 128.402 14.4389 128.433 14.3193 128.377C14.3172 128.374 14.3204 128.239 14.3155 128.235C14.2462 128.175 14.2019 128.34 14.1448 128.438C14.0878 128.537 14.0425 128.504 14.0087 128.272C13.9657 128.301 13.9039 128.198 13.8683 128.136C13.8328 128.074 13.8278 128.337 13.8247 128.342C13.7271 128.509 13.6707 128.358 13.5695 128.335C13.5214 128.323 13.4259 128.361 13.3738 128.39C13.3326 128.413 13.3078 128.351 13.2699 128.391C13.2648 128.396 13.2699 128.513 13.2684 128.518C13.226 128.658 13.2464 128.372 13.2376 128.32C13.2059 128.134 13.1864 128.035 13.1321 128.123C13.1196 128.143 13.0832 128.555 13.0604 128.579C13.0307 128.61 13.0419 128.462 13.0109 128.498C13.0082 128.501 13.0088 128.592 12.9896 128.588C12.9007 128.571 12.8038 128.518 12.7113 128.527C12.6987 128.528 12.7149 128.672 12.6967 128.676C12.6111 128.693 12.5173 128.688 12.4339 128.62C12.4134 128.603 12.4262 128.502 12.4218 128.472C12.3944 128.289 12.3557 128.554 12.3493 128.559C12.1966 128.686 12.0798 128.447 11.9242 128.561C11.9157 128.567 11.8505 128.851 11.8214 128.608C11.8195 128.592 11.7907 128.343 11.7652 128.513C11.7637 128.524 11.7816 128.652 11.7503 128.639C11.719 128.626 11.6686 128.711 11.6256 128.57C11.612 128.526 11.5798 128.278 11.5392 128.476C11.5366 128.49 11.4739 128.937 11.4515 128.628C11.4478 128.577 11.4516 128.251 11.4032 128.418C11.3939 128.451 11.4107 128.524 11.3863 128.569C11.3489 128.639 11.2994 128.552 11.2534 128.697C11.2454 128.723 11.2113 128.945 11.1839 128.776C11.1796 128.75 11.1878 128.641 11.1733 128.629C11.1046 128.57 11.0326 128.643 10.9628 128.568C10.9381 128.541 10.9507 128.365 10.925 128.318C10.8992 128.27 10.8473 128.225 10.8203 128.306C10.7933 128.386 10.8228 128.667 10.7824 128.69C10.6068 128.787 10.4327 128.623 10.2574 128.598C10.2313 128.595 10.2529 128.695 10.2146 128.697C10.0732 128.705 9.82921 128.799 9.70657 128.585C9.6083 128.414 9.73196 128.284 9.65687 128.214C9.62064 128.181 9.58143 128.508 9.57269 128.518C9.48724 128.623 9.42785 128.478 9.35094 128.522C9.33506 128.531 9.35063 128.664 9.33712 128.67C9.29095 128.693 9.24242 128.634 9.1983 128.645C9.17851 128.65 9.18216 128.751 9.16394 128.743C9.12036 128.726 9.08183 128.683 9.03934 128.589C9.03547 128.58 9.06158 128.454 9.02934 128.449C8.97716 128.442 8.91238 128.349 8.85235 128.445C8.83454 128.474 8.83384 128.705 8.79555 128.546C8.78751 128.513 8.79776 128.235 8.75316 128.475C8.74566 128.515 8.67073 128.838 8.63396 128.63C8.62425 128.575 8.5995 128.348 8.57807 128.383C8.57517 128.389 8.58681 128.513 8.56906 128.525C8.5065 128.566 8.44093 128.553 8.37666 128.591C8.3595 128.602 8.38507 128.731 8.35948 128.742C8.28914 128.775 8.20132 128.742 8.13254 128.702C8.10718 128.687 8.1247 128.58 8.12286 128.569C8.09319 128.38 8.07564 128.635 8.06579 128.649C8.00454 128.738 7.9579 128.619 7.90144 128.65C7.88586 128.659 7.89691 128.78 7.89381 128.791C7.86164 128.896 7.8856 128.679 7.86524 128.655C7.8082 128.587 7.74461 128.597 7.68693 128.612C7.66574 128.618 7.68956 128.758 7.67054 128.762C7.558 128.786 7.441 128.773 7.33117 128.695C7.31049 128.681 7.3235 128.572 7.31919 128.548C7.28949 128.375 7.24595 128.611 7.23593 128.633C7.19038 128.736 7.17269 128.64 7.13246 128.658C6.93595 128.747 6.69332 128.683 6.50782 128.644C6.26611 128.594 6.07854 128.491 5.84804 128.517C5.83339 128.519 5.84816 128.663 5.83553 128.666C5.67248 128.701 5.51197 128.645 5.34859 128.686C5.33518 128.689 5.35451 128.826 5.33299 128.836C5.28886 128.856 5.23294 128.849 5.18832 128.805C5.16655 128.784 5.19575 128.667 5.17384 128.648C5.12282 128.605 5.06814 128.595 5.01574 128.617C4.99344 128.626 5.02708 128.766 4.9981 128.768C4.80066 128.781 4.60675 128.805 4.40723 128.625C4.39355 128.612 4.38155 128.328 4.35246 128.383C4.35027 128.462 4.35039 128.554 4.34944 128.638C4.06201 128.684 3.77752 128.585 3.48929 128.57C3.47714 128.57 3.49814 128.72 3.47462 128.72C3.33844 128.717 3.20621 128.759 3.06692 128.61C3.0531 128.595 3.06019 128.33 3.01947 128.37C3.01228 128.378 2.95094 128.413 2.93508 128.47C2.93293 128.479 2.94412 128.603 2.92436 128.606C2.80949 128.625 2.68912 128.597 2.57445 128.521C2.55595 128.509 2.57566 128.377 2.56247 128.367C2.46898 128.298 2.36728 128.398 2.27793 128.278C2.21813 128.198 2.24027 127.971 2.20849 127.747C2.204 127.715 2.16697 127.71 2.16505 127.58C2.16013 127.253 2.17807 126.894 2.17071 126.546C2.16916 126.47 2.11956 126.551 2.14892 126.37C2.15098 126.358 2.18693 126.297 2.19579 126.236C2.20195 126.193 2.19084 126.061 2.20342 126.006C2.216 125.952 2.22983 126.063 2.25068 125.999C2.27153 125.934 2.26236 125.783 2.304 125.766ZM13.7083 127.857C13.6753 127.731 13.6705 128.194 13.7061 128.083C13.7078 128.077 13.71 127.864 13.7083 127.857ZM17.6911 127.784C17.6481 127.58 17.6186 127.88 17.649 128.038C17.6794 128.196 17.7042 127.846 17.6911 127.784ZM18.1374 127.635C18.0871 127.474 18.0792 128.131 18.133 127.998C18.1362 127.991 18.1403 127.644 18.1374 127.635ZM2.35586 127.683C2.35541 127.677 2.32879 127.671 2.32815 127.677C2.31398 127.824 2.36721 127.836 2.35586 127.683ZM18.5802 127.473C18.5645 127.384 18.5193 127.486 18.5388 127.597C18.5545 127.686 18.5998 127.583 18.5802 127.473ZM11.9911 127.363C11.9905 127.356 11.9715 127.35 11.9718 127.389C11.9731 127.515 11.9997 127.479 11.9911 127.363ZM19.3329 127.465C19.2217 127.44 19.1543 126.898 19.2754 126.959C19.2973 126.97 19.2281 127.132 19.256 127.181C19.3071 127.27 19.341 126.93 19.3931 127.112C19.4025 127.146 19.3392 127.468 19.3327 127.466C19.3328 127.466 19.3328 127.465 19.3329 127.465ZM13.6893 127.301C13.6886 127.295 13.6622 127.289 13.6616 127.295C13.6473 127.442 13.7005 127.454 13.6893 127.301ZM10.8774 127.077C10.876 127.064 10.8147 127.052 10.8127 127.064C10.7807 127.304 10.9047 127.329 10.8774 127.077ZM15.4686 126.962C15.4974 126.814 15.5319 126.797 15.5549 126.983C15.5262 126.973 15.4974 126.971 15.4686 126.962Z" fill="#69A13B"/>
<path id="Line 147" d="M190.097 125.766C190.194 125.725 190.32 125.768 190.417 125.828C190.447 125.846 190.432 125.928 190.452 125.944C190.493 125.976 190.531 125.936 190.571 125.974C190.585 125.987 190.568 126.117 190.582 126.128C190.659 126.185 190.731 126.152 190.809 126.18C191.192 126.316 191.568 126.365 191.955 126.424C192.083 126.444 192.238 126.561 192.37 126.51C192.386 126.504 192.377 126.39 192.379 126.38C192.425 126.236 192.41 126.467 192.44 126.497C192.559 126.618 192.692 126.629 192.806 126.585C192.855 126.565 192.806 126.339 192.855 126.466C192.859 126.475 192.846 126.596 192.86 126.609C192.89 126.638 192.948 126.616 192.971 126.626C193.016 126.645 193.024 126.644 193.067 126.645C193.125 126.648 193.195 126.708 193.258 126.681C193.271 126.675 193.253 126.55 193.275 126.529C193.296 126.508 193.353 126.519 193.372 126.548C193.391 126.577 193.383 126.675 193.386 126.697C193.414 126.886 193.48 126.624 193.488 126.618C193.642 126.508 193.774 126.657 193.918 126.656C194.027 126.656 194.145 126.607 194.249 126.613C194.373 126.622 194.478 126.689 194.599 126.678C194.612 126.676 194.597 126.53 194.612 126.529C194.777 126.512 194.941 126.528 195.106 126.626C195.122 126.636 195.101 126.765 195.118 126.782C195.219 126.888 195.378 127.141 195.438 126.582C195.506 126.604 195.589 126.627 195.651 126.739C195.69 126.812 195.652 126.952 195.7 126.892C195.711 126.879 195.697 126.756 195.713 126.746C195.782 126.701 195.858 126.741 195.926 126.677C195.94 126.664 195.936 126.555 195.94 126.535C195.973 126.375 196.028 126.639 196.04 126.658C196.131 126.802 196.198 126.745 196.283 126.749C196.303 126.75 196.279 126.602 196.298 126.598C196.397 126.577 196.499 126.59 196.595 126.655C196.617 126.67 196.597 126.795 196.607 126.809C196.653 126.867 196.663 126.63 196.706 126.681C196.715 126.692 196.71 126.799 196.712 126.811C196.738 126.996 196.76 126.734 196.767 126.728C196.852 126.649 196.906 126.923 196.988 126.884C196.998 126.879 196.976 126.743 197.004 126.737C197.187 126.7 197.382 126.737 197.564 126.846C197.592 126.863 197.572 126.965 197.574 126.977C197.603 127.174 197.621 126.911 197.631 126.901C197.703 126.829 197.771 127.05 197.821 126.736C198.129 126.845 198.436 126.669 198.741 126.95C198.745 126.953 198.738 127.083 198.746 127.089C198.839 127.162 198.821 126.96 198.883 126.714C198.899 126.652 198.946 126.949 198.95 126.971C198.965 127.052 198.949 127.245 198.955 127.26C198.997 127.383 198.99 126.744 199.047 126.744C199.049 126.745 199.041 126.863 199.046 126.874C199.061 126.911 199.076 126.864 199.09 126.905C199.124 126.998 199.135 127.309 199.186 127.128C199.193 127.105 199.183 126.742 199.234 126.76C199.254 126.767 199.344 126.761 199.369 126.784C199.394 126.807 199.377 126.924 199.379 126.929C199.447 127.083 199.421 127.147 199.455 127.376C199.489 127.603 199.479 127.061 199.493 127C199.507 126.94 199.557 127.067 199.569 127.111C199.581 127.155 199.566 127.23 199.577 127.255C199.649 127.418 199.608 126.985 199.632 126.899C199.688 126.695 199.731 127.098 199.783 127.137C199.796 127.148 199.785 127.056 199.798 127.047C199.846 127.015 199.876 127.14 199.931 127.025C199.94 127.006 199.985 126.764 200.014 126.942C200.018 126.968 200.007 127.068 200.028 127.09C200.059 127.124 200.115 127.146 200.148 127.112C200.173 127.088 200.144 126.922 200.176 126.974C200.189 126.997 200.164 127.093 200.19 127.128C200.215 127.163 200.281 127.159 200.307 127.156C200.332 127.152 200.318 127.027 200.32 127.019C200.332 126.97 200.38 126.91 200.384 126.91C200.599 126.895 200.796 127.106 201.005 127.036C201.021 127.031 201.01 126.898 201.013 126.896C201.069 126.841 201.025 127.192 201.064 127.31C201.058 127.042 201.081 127.09 201.121 127.061C201.14 127.046 201.13 126.943 201.131 126.932C201.159 126.774 201.179 126.978 201.184 127.02C201.203 127.173 201.223 126.992 201.236 127.094C201.249 127.196 201.219 127.347 201.257 127.345C201.268 127.249 201.24 126.998 201.268 126.957C201.377 126.803 201.579 127 201.667 127.021C201.754 127.041 201.782 127.024 201.833 127.058C201.924 127.121 201.891 126.935 201.947 126.85C202.004 126.764 201.977 127.222 201.985 127.321C201.993 127.419 202.002 127.318 202.012 127.372C202.022 127.426 202 127.493 202.024 127.514C202.047 127.534 202.111 127.359 202.12 127.256C202.137 127.038 202.108 126.809 202.17 126.889C202.174 126.894 202.162 127.014 202.176 127.026C202.285 127.119 202.398 127.125 202.506 127.207C202.521 127.218 202.508 127.352 202.517 127.361C202.607 127.446 202.575 127.22 202.624 126.969C202.613 127.303 202.641 127.508 202.709 127.51C202.751 127.511 202.744 127.365 202.77 127.262C202.778 127.231 202.807 127.332 202.813 127.263C202.83 127.039 202.803 126.788 202.874 126.888C202.877 126.892 202.867 127.015 202.877 127.023C202.947 127.071 202.955 126.837 203.03 126.808C203.089 126.786 203.194 126.929 203.26 126.952C203.259 127.328 203.322 127.242 203.348 126.983C203.391 126.993 203.438 126.979 203.48 127.015C203.495 127.027 203.485 127.136 203.487 127.147C203.515 127.332 203.534 127.08 203.543 127.07C203.645 126.974 203.728 127.165 203.825 126.978C203.828 126.971 203.834 126.71 203.86 126.901C203.861 126.914 203.829 127.033 203.875 127.042C203.921 127.051 204.007 127.191 204.07 127.07C204.085 127.041 204.124 126.829 204.155 126.995C204.159 127.017 204.155 127.092 204.161 127.134C204.18 127.266 204.191 127.003 204.213 127.227C204.236 127.451 204.284 127.618 204.347 127.464C204.349 127.459 204.365 127.25 204.385 127.254C204.417 127.259 204.462 127.303 204.496 127.301C204.512 127.301 204.502 127.171 204.504 127.168C204.612 127.096 204.689 127.211 204.804 127.262C204.826 127.271 204.886 127.094 204.927 127.234C204.972 127.387 204.926 128.024 205.03 127.873C205.071 127.812 205.124 127.004 205.199 127.422C205.345 127.319 205.479 127.533 205.625 127.385C205.632 127.378 205.652 127.153 205.668 127.156C205.691 127.161 205.703 127.266 205.72 127.273C205.788 127.305 205.851 127.215 205.917 127.229C205.942 127.234 205.933 127.343 205.963 127.349C205.993 127.355 206.013 127.211 206.053 127.281C206.084 127.333 206.114 127.627 206.155 127.661C206.157 127.372 206.184 127.378 206.234 127.301C206.244 127.286 206.233 127.186 206.238 127.173C206.256 127.121 206.273 127.205 206.291 127.148C206.295 127.135 206.295 127.036 206.298 127.019C206.328 126.874 206.376 127.096 206.385 127.135C206.417 127.282 206.432 127.153 206.456 127.211C206.481 127.269 206.444 127.341 206.473 127.377C206.532 127.449 206.608 127.433 206.668 127.438C206.692 127.439 206.676 127.307 206.679 127.304C206.729 127.271 206.779 127.411 206.806 127.148C206.841 127.828 206.836 127.082 206.907 127.218C206.913 127.229 206.92 127.551 206.898 127.598C206.877 127.645 206.844 127.545 206.815 127.618C206.808 127.635 206.767 127.937 206.762 127.955C206.719 128.097 206.712 127.617 206.71 127.591C206.684 127.306 206.635 127.63 206.622 127.653C206.563 127.756 206.512 127.688 206.462 127.761C206.43 127.809 206.427 128.123 206.401 128.114C206.316 128.082 206.287 127.643 206.207 128.024C206.19 128.105 206.207 128.449 206.145 128.178C206.141 128.161 206.096 127.914 206.069 128.07C206.066 128.09 206.066 128.19 206.062 128.199C206.033 128.253 206.013 128.173 205.981 128.211C205.949 128.25 205.911 128.307 205.875 128.273C205.853 128.252 205.825 128.066 205.814 128.02C205.784 127.888 205.753 128.104 205.734 127.945C205.716 127.785 205.752 127.541 205.703 127.438C205.702 127.698 205.697 127.965 205.695 128.227C205.588 128.218 205.483 128.134 205.377 128.145C205.364 128.147 205.377 128.287 205.363 128.292C205.303 128.314 205.251 128.215 205.189 128.254C205.141 128.286 205.088 128.434 205.038 128.471C205.007 128.173 204.932 128.274 204.878 128.247C204.859 128.238 204.861 128.158 204.847 128.132C204.796 128.036 204.82 128.3 204.806 128.341C204.746 128.518 204.741 127.922 204.67 127.937C204.667 127.937 204.621 128.255 204.615 128.275C204.575 128.404 204.608 128.164 204.583 128.141C204.537 128.098 204.506 128.022 204.452 128.115C204.436 128.142 204.399 128.34 204.368 128.187C204.364 128.167 204.367 128.062 204.363 128.056C204.305 127.954 204.304 128.283 204.27 128.395C204.237 128.507 204.186 128.279 204.175 128.214C204.148 128.044 204.196 128.141 204.198 128.124C204.215 127.926 204.178 127.96 204.149 127.943C204.145 127.62 204.105 127.639 204.119 127.927C204.121 127.959 204.143 127.929 204.149 127.943C204.124 128.261 204.08 128.301 204.031 128.005C204.008 127.866 204.03 127.704 203.961 127.763C203.93 127.79 203.942 128.013 203.914 128.073C203.851 128.212 203.769 128.004 203.703 128.037C203.68 128.049 203.703 128.171 203.687 128.183C203.644 128.216 203.606 128.125 203.563 128.171C203.559 128.176 203.568 128.303 203.555 128.305C203.453 128.32 203.365 128.238 203.259 128.236C203.207 128.235 203.116 128.305 203.063 128.291C202.971 128.267 202.857 128.082 202.779 128.127C202.728 128.156 202.739 128.283 202.717 128.37C202.674 128.539 202.599 128.237 202.589 128.19C202.589 128.189 202.633 128.158 202.61 128.093C202.596 127.956 202.59 128.19 202.589 128.19C202.583 128.16 202.494 128.131 202.477 128.155C202.467 128.169 202.473 128.29 202.468 128.294C202.35 128.402 202.232 128.433 202.112 128.377C202.11 128.374 202.113 128.239 202.108 128.235C202.039 128.175 201.995 128.34 201.938 128.438C201.881 128.537 201.835 128.504 201.802 128.272C201.759 128.301 201.697 128.198 201.661 128.136C201.626 128.074 201.621 128.337 201.618 128.342C201.52 128.509 201.464 128.358 201.362 128.335C201.314 128.323 201.219 128.361 201.167 128.39C201.126 128.413 201.101 128.351 201.063 128.391C201.058 128.396 201.063 128.513 201.061 128.518C201.019 128.658 201.039 128.372 201.031 128.32C200.999 128.134 200.979 128.035 200.925 128.123C200.913 128.143 200.876 128.555 200.853 128.579C200.824 128.61 200.835 128.462 200.804 128.498C200.801 128.501 200.802 128.592 200.783 128.588C200.694 128.571 200.597 128.518 200.504 128.527C200.492 128.528 200.508 128.672 200.49 128.676C200.404 128.693 200.31 128.688 200.227 128.62C200.206 128.603 200.219 128.502 200.215 128.472C200.187 128.289 200.149 128.554 200.142 128.559C199.99 128.686 199.873 128.447 199.717 128.561C199.709 128.567 199.643 128.851 199.614 128.608C199.612 128.592 199.584 128.343 199.558 128.513C199.557 128.524 199.575 128.652 199.543 128.639C199.512 128.626 199.462 128.711 199.419 128.57C199.405 128.526 199.373 128.278 199.332 128.476C199.33 128.49 199.267 128.937 199.244 128.628C199.241 128.577 199.245 128.251 199.196 128.418C199.187 128.451 199.204 128.524 199.179 128.569C199.142 128.639 199.092 128.552 199.046 128.697C199.038 128.723 199.004 128.945 198.977 128.776C198.973 128.75 198.981 128.641 198.966 128.629C198.898 128.57 198.826 128.643 198.756 128.568C198.731 128.541 198.744 128.365 198.718 128.318C198.692 128.27 198.64 128.225 198.613 128.306C198.586 128.386 198.616 128.667 198.575 128.69C198.4 128.787 198.226 128.623 198.05 128.598C198.024 128.595 198.046 128.695 198.008 128.697C197.866 128.705 197.622 128.799 197.5 128.585C197.401 128.414 197.525 128.284 197.45 128.214C197.414 128.181 197.374 128.508 197.366 128.518C197.28 128.623 197.221 128.478 197.144 128.522C197.128 128.531 197.144 128.664 197.13 128.67C197.084 128.693 197.035 128.634 196.991 128.645C196.971 128.65 196.975 128.751 196.957 128.743C196.913 128.726 196.875 128.683 196.832 128.589C196.828 128.58 196.855 128.454 196.822 128.449C196.77 128.442 196.705 128.349 196.645 128.445C196.628 128.474 196.627 128.705 196.589 128.546C196.58 128.513 196.591 128.235 196.546 128.475C196.539 128.515 196.464 128.838 196.427 128.63C196.417 128.575 196.392 128.348 196.371 128.383C196.368 128.389 196.38 128.513 196.362 128.525C196.299 128.566 196.234 128.553 196.17 128.591C196.152 128.602 196.178 128.731 196.152 128.742C196.082 128.775 195.994 128.742 195.926 128.702C195.9 128.687 195.918 128.58 195.916 128.569C195.886 128.38 195.869 128.635 195.859 128.649C195.798 128.738 195.751 128.619 195.694 128.65C195.679 128.659 195.69 128.78 195.687 128.791C195.655 128.896 195.679 128.679 195.658 128.655C195.601 128.587 195.538 128.597 195.48 128.612C195.459 128.618 195.483 128.758 195.464 128.762C195.351 128.786 195.234 128.773 195.124 128.695C195.103 128.681 195.116 128.572 195.112 128.548C195.082 128.375 195.039 128.611 195.029 128.633C194.983 128.736 194.966 128.64 194.925 128.658C194.729 128.747 194.486 128.683 194.301 128.644C194.059 128.594 193.872 128.491 193.641 128.517C193.626 128.519 193.641 128.663 193.629 128.666C193.465 128.701 193.305 128.645 193.142 128.686C193.128 128.689 193.147 128.826 193.126 128.836C193.082 128.856 193.026 128.849 192.981 128.805C192.96 128.784 192.989 128.667 192.967 128.648C192.916 128.605 192.861 128.595 192.809 128.617C192.786 128.626 192.82 128.766 192.791 128.768C192.594 128.781 192.4 128.805 192.2 128.625C192.187 128.612 192.175 128.328 192.145 128.383C192.143 128.462 192.143 128.554 192.142 128.638C191.855 128.684 191.57 128.585 191.282 128.57C191.27 128.57 191.291 128.72 191.268 128.72C191.131 128.717 190.999 128.759 190.86 128.61C190.846 128.595 190.853 128.33 190.812 128.37C190.805 128.378 190.744 128.413 190.728 128.47C190.726 128.479 190.737 128.603 190.717 128.606C190.602 128.625 190.482 128.597 190.367 128.521C190.349 128.509 190.369 128.377 190.355 128.367C190.262 128.298 190.16 128.398 190.071 128.278C190.011 128.198 190.033 127.971 190.001 127.747C189.997 127.715 189.96 127.71 189.958 127.58C189.953 127.253 189.971 126.894 189.964 126.546C189.962 126.47 189.913 126.551 189.942 126.37C189.944 126.358 189.98 126.297 189.989 126.236C189.995 126.193 189.984 126.061 189.996 126.006C190.009 125.952 190.023 126.063 190.044 125.999C190.064 125.934 190.055 125.783 190.097 125.766ZM201.501 127.857C201.468 127.731 201.463 128.194 201.499 128.083C201.501 128.077 201.503 127.864 201.501 127.857ZM205.484 127.784C205.441 127.58 205.412 127.88 205.442 128.038C205.472 128.196 205.497 127.846 205.484 127.784ZM205.93 127.635C205.88 127.474 205.872 128.131 205.926 127.998C205.929 127.991 205.933 127.644 205.93 127.635ZM190.149 127.683C190.148 127.677 190.122 127.671 190.121 127.677C190.107 127.824 190.16 127.836 190.149 127.683ZM206.373 127.473C206.357 127.384 206.312 127.486 206.332 127.597C206.348 127.686 206.393 127.583 206.373 127.473ZM199.784 127.363C199.784 127.356 199.764 127.35 199.765 127.389C199.766 127.515 199.793 127.479 199.784 127.363ZM207.126 127.465C207.015 127.44 206.947 126.898 207.068 126.959C207.09 126.97 207.021 127.132 207.049 127.181C207.1 127.27 207.134 126.93 207.186 127.112C207.196 127.146 207.132 127.468 207.126 127.466C207.126 127.466 207.126 127.465 207.126 127.465ZM201.482 127.301C201.482 127.295 201.455 127.289 201.455 127.295C201.44 127.442 201.493 127.454 201.482 127.301ZM198.67 127.077C198.669 127.064 198.608 127.052 198.606 127.064C198.574 127.304 198.698 127.329 198.67 127.077ZM203.262 126.962C203.29 126.814 203.325 126.797 203.348 126.983C203.319 126.973 203.29 126.971 203.262 126.962Z" fill="#69A13B"/>
<path id="Line 146_2" d="M2.37605 0.0157477C2.47274 -0.0245944 2.59949 0.018541 2.69581 0.0777468C2.726 0.0961093 2.71071 0.178191 2.73155 0.194562C2.77231 0.226477 2.81028 0.186221 2.85055 0.224239C2.8639 0.23724 2.84729 0.367258 2.86128 0.377914C2.93798 0.435374 3.01054 0.402257 3.08823 0.429895C3.47093 0.566254 3.84711 0.615061 4.2345 0.6743C4.36223 0.693722 4.5175 0.811718 4.64943 0.760116C4.66483 0.753976 4.65565 0.639853 4.65858 0.630447C4.70454 0.486452 4.68926 0.716842 4.71926 0.747452C4.83837 0.868312 4.9708 0.878824 5.08542 0.83478C5.13419 0.815708 5.0853 0.589032 5.13439 0.716263C5.1378 0.72486 5.12543 0.846049 5.1388 0.858975C5.16913 0.888046 5.22667 0.866385 5.25017 0.875987C5.29547 0.895106 5.30296 0.893886 5.34581 0.895267C5.40438 0.89821 5.47404 0.958452 5.53689 0.930992C5.5503 0.924771 5.53254 0.800537 5.55393 0.779397C5.57535 0.75829 5.63199 0.768824 5.65109 0.79811C5.67019 0.82741 5.66205 0.925056 5.66543 0.947437C5.69324 1.13635 5.75877 0.874707 5.76719 0.868237C5.9209 0.757987 6.05272 0.907033 6.197 0.906608C6.30654 0.90597 6.42366 0.856764 6.52788 0.863511C6.65205 0.872031 6.75729 0.939351 6.87791 0.927779C6.89064 0.926701 6.87573 0.780631 6.89128 0.779019C7.05647 0.762021 7.22051 0.777944 7.385 0.876554C7.40149 0.886572 7.38023 1.01482 7.39671 1.0325C7.49761 1.13789 7.65726 1.39108 7.71719 0.832701C7.78554 0.854505 7.86851 0.877033 7.92966 0.989589C7.96908 1.06203 7.93079 1.20175 7.97922 1.14213C7.99015 1.12885 7.97594 1.00649 7.99232 0.995827C8.06129 0.951035 8.13663 0.990807 8.20486 0.92759C8.21873 0.914444 8.21494 0.804809 8.21887 0.785067C8.25192 0.625183 8.30693 0.889482 8.31892 0.908688C8.41024 1.0519 8.47693 0.995543 8.562 0.99904C8.58174 0.999913 8.5584 0.85265 8.5774 0.848201C8.67592 0.827095 8.77798 0.839752 8.87445 0.905096C8.89591 0.919985 8.87617 1.04543 8.88643 1.05896C8.93164 1.11711 8.94166 0.880179 8.98503 0.93137C8.99417 0.941858 8.98902 1.04925 8.99069 1.06104C9.01678 1.24618 9.03946 0.98385 9.04617 0.978059C9.13109 0.898924 9.18536 1.17278 9.2674 1.134C9.27721 1.12909 9.25508 0.993209 9.28267 0.987699C9.46645 0.950189 9.66082 0.987515 9.84273 1.0962C9.87102 1.11291 9.85083 1.21498 9.85261 1.22757C9.88161 1.42417 9.90038 1.16075 9.90961 1.15082C9.98236 1.07941 10.0503 1.30033 10.0998 0.986565C10.4079 1.09545 10.7146 0.919256 11.0202 1.20035C11.0241 1.2036 11.0171 1.33334 11.0249 1.33928C11.1182 1.41213 11.1003 1.21049 11.162 0.963882C11.1776 0.901958 11.2249 1.19969 11.2291 1.22152C11.2444 1.30194 11.2285 1.49496 11.2337 1.51053C11.2759 1.63284 11.269 0.994521 11.3261 0.994315C11.3278 0.995379 11.3204 1.11287 11.3251 1.12455C11.34 1.16123 11.3548 1.11454 11.3693 1.15498C11.4026 1.24857 11.4145 1.55873 11.4653 1.37822C11.4718 1.35479 11.4619 0.99271 11.5129 1.00981C11.5332 1.01694 11.623 1.01073 11.6482 1.0342C11.6733 1.05763 11.6561 1.17431 11.6579 1.17937C11.7256 1.33366 11.6999 1.3976 11.7339 1.62603C11.7678 1.85359 11.7584 1.31083 11.7723 1.25025C11.7861 1.18984 11.8358 1.31714 11.848 1.3614C11.8602 1.40567 11.845 1.47981 11.8559 1.50486C11.9278 1.66855 11.8874 1.23546 11.9111 1.14931C11.967 0.945338 12.0106 1.34785 12.0617 1.38729C12.0756 1.39794 12.0643 1.30627 12.0766 1.29769C12.1254 1.26495 12.1548 1.39055 12.2104 1.27539C12.2195 1.25662 12.2644 1.01462 12.2934 1.19222C12.2975 1.21783 12.2858 1.31813 12.3067 1.3406C12.3377 1.37432 12.3938 1.39625 12.4272 1.36272C12.4518 1.33791 12.4236 1.17263 12.4546 1.22398C12.4684 1.2469 12.4428 1.34359 12.4688 1.3786C12.4946 1.41359 12.5605 1.40934 12.5856 1.406C12.6107 1.40259 12.5969 1.27722 12.599 1.26877C12.6112 1.22039 12.6593 1.15994 12.6635 1.16009C12.8778 1.14478 13.0754 1.35611 13.284 1.28616C13.3004 1.28086 13.2895 1.14865 13.292 1.14648C13.348 1.09109 13.3038 1.44259 13.343 1.56025C13.3373 1.29196 13.3605 1.34054 13.3999 1.31112C13.419 1.29672 13.4086 1.19284 13.4103 1.1822C13.4386 1.02442 13.4582 1.22822 13.4633 1.26991C13.4819 1.42327 13.5023 1.24206 13.515 1.34457C13.5277 1.44632 13.4985 1.59715 13.5363 1.59522C13.5469 1.49918 13.5188 1.24821 13.5476 1.20753C13.656 1.05368 13.8585 1.25059 13.9457 1.27104C14.0328 1.29148 14.0609 1.27376 14.1116 1.30847C14.2032 1.37122 14.1696 1.18502 14.2265 1.09979C14.2836 1.01457 14.2558 1.47272 14.264 1.57121C14.2721 1.66966 14.2809 1.56832 14.2909 1.62243C14.3009 1.67654 14.2793 1.74351 14.3027 1.76382C14.3262 1.78412 14.3904 1.60898 14.3988 1.506C14.4164 1.28782 14.3874 1.05884 14.4496 1.13929C14.4532 1.14407 14.4416 1.26454 14.4552 1.27671C14.5639 1.36946 14.6769 1.3752 14.7855 1.45723C14.8004 1.4687 14.787 1.60271 14.7957 1.6109C14.8862 1.69663 14.8539 1.47065 14.9035 1.21963C14.8923 1.55369 14.9198 1.75807 14.9884 1.76004C15.0297 1.76135 15.0226 1.61544 15.0493 1.51261C15.0573 1.48161 15.0866 1.5818 15.0919 1.51318C15.1093 1.28889 15.0818 1.0378 15.1526 1.13778C15.1557 1.14253 15.1458 1.26531 15.1566 1.27274C15.2259 1.32141 15.2343 1.0868 15.3093 1.05839C15.3681 1.0361 15.4726 1.17916 15.5396 1.20243C15.5382 1.57801 15.6014 1.49201 15.627 1.23305C15.6705 1.24365 15.7174 1.22901 15.7594 1.26481C15.7739 1.27701 15.7644 1.38575 15.7662 1.3975C15.7941 1.58181 15.813 1.32988 15.8224 1.32C15.924 1.22399 16.0068 1.41494 16.1038 1.22832C16.1073 1.2216 16.1129 0.960712 16.1388 1.1512C16.1405 1.16433 16.1084 1.28303 16.1541 1.29221C16.1997 1.30141 16.2857 1.44127 16.3491 1.32038C16.3644 1.29127 16.4032 1.07948 16.4343 1.24496C16.4385 1.26743 16.4339 1.34225 16.4399 1.38389C16.4593 1.51656 16.4698 1.25287 16.4926 1.47689C16.5153 1.7009 16.5626 1.86867 16.6265 1.71411C16.6286 1.70962 16.6437 1.50061 16.6638 1.50392C16.6959 1.50937 16.7414 1.55291 16.7749 1.55155C16.7909 1.55082 16.7807 1.42104 16.7834 1.41867C16.8913 1.34594 16.968 1.46164 17.0835 1.51186C17.1047 1.52132 17.1655 1.34434 17.2065 1.48426C17.2515 1.63743 17.2053 2.27457 17.3088 2.12278C17.3505 2.06206 17.4033 1.25373 17.4783 1.67253C17.6238 1.56875 17.7583 1.78309 17.9041 1.63491C17.9107 1.62835 17.9314 1.40275 17.9468 1.40582C17.9697 1.41081 17.9823 1.51625 17.9986 1.5232C18.0671 1.55496 18.1298 1.46475 18.1958 1.47878C18.2209 1.48388 18.2121 1.5929 18.242 1.599C18.2719 1.60499 18.2918 1.46142 18.3323 1.53076C18.3629 1.58361 18.3935 1.87706 18.4341 1.91126C18.4356 1.62181 18.4635 1.62777 18.5131 1.55136C18.5226 1.53654 18.5124 1.43579 18.5169 1.42358C18.5352 1.37166 18.5522 1.45515 18.5696 1.39863C18.5738 1.38506 18.574 1.28621 18.5775 1.26953C18.607 1.12396 18.6555 1.34631 18.6638 1.38502C18.6957 1.53205 18.7107 1.40349 18.7351 1.46139C18.7596 1.51928 18.723 1.59165 18.7516 1.62678C18.8108 1.69945 18.8869 1.68348 18.947 1.68803C18.971 1.68923 18.9547 1.55728 18.9581 1.55439C19.0077 1.52092 19.0579 1.66128 19.0854 1.39844C19.1198 2.07803 19.1153 1.33253 19.1862 1.46857C19.1918 1.47957 19.1989 1.80095 19.1775 1.84813C19.156 1.89526 19.1235 1.79481 19.0937 1.86835C19.0867 1.88561 19.0463 2.18676 19.0408 2.205C18.9977 2.34757 18.9916 1.86732 18.9893 1.84094C18.9634 1.55629 18.9141 1.88071 18.9011 1.90313C18.8417 2.00585 18.7912 1.93831 18.7415 2.01163C18.709 2.05902 18.7058 2.3736 18.6803 2.36397C18.5954 2.33214 18.5658 1.8933 18.4858 2.2738C18.4687 2.35496 18.4857 2.69879 18.4243 2.42842C18.4204 2.41138 18.3748 2.16405 18.3485 2.32049C18.3451 2.34022 18.3452 2.44042 18.3409 2.44884C18.3116 2.50329 18.2921 2.42346 18.2603 2.46169C18.2284 2.49993 18.1901 2.55692 18.1537 2.52294C18.1318 2.50261 18.1036 2.31592 18.0931 2.27021C18.0635 2.13854 18.0317 2.35443 18.0134 2.19498C17.9948 2.03474 18.031 1.79138 17.9825 1.68784C17.9807 1.94817 17.9766 2.21538 17.9737 2.47719C17.8673 2.46803 17.7626 2.38384 17.6558 2.39535C17.6426 2.39703 17.6561 2.53699 17.6419 2.54241C17.5821 2.56464 17.5298 2.46487 17.4677 2.5046C17.4197 2.53589 17.367 2.68408 17.3167 2.72141C17.286 2.42351 17.2115 2.52464 17.1573 2.49742C17.1383 2.48801 17.1396 2.40845 17.1261 2.38249C17.0752 2.28649 17.0991 2.54974 17.0851 2.59117C17.0252 2.76798 17.0201 2.17213 16.9495 2.18685C16.9458 2.18743 16.9001 2.50505 16.8938 2.52483C16.8538 2.6538 16.8871 2.41428 16.8621 2.39081C16.8164 2.34792 16.7846 2.27207 16.731 2.3651C16.7153 2.39266 16.6778 2.59062 16.6475 2.4375C16.6435 2.41745 16.6457 2.31246 16.6425 2.30632C16.5842 2.20383 16.5827 2.5337 16.5494 2.64542C16.5162 2.75712 16.4648 2.5294 16.4543 2.46377C16.427 2.29399 16.4753 2.39121 16.4768 2.37455C16.4942 2.17628 16.4567 2.21041 16.4281 2.19366C16.4239 1.87022 16.3839 1.88963 16.3984 2.17759C16.4 2.20905 16.4223 2.17888 16.4281 2.19366C16.4029 2.511 16.3589 2.55164 16.3103 2.25509C16.2876 2.1161 16.3091 1.95405 16.24 2.01333C16.2086 2.04009 16.2207 2.2628 16.193 2.32352C16.1298 2.46205 16.0476 2.2543 15.9824 2.28704C15.9587 2.29892 15.9818 2.42083 15.9656 2.43315C15.9227 2.46623 15.8849 2.37476 15.8417 2.42162C15.8378 2.42602 15.8474 2.55363 15.834 2.55526C15.7324 2.57008 15.6439 2.48834 15.5378 2.48608C15.4865 2.48504 15.3949 2.55542 15.3418 2.54127C15.2497 2.5175 15.1365 2.33193 15.0579 2.37701C15.0066 2.40587 15.0179 2.53351 14.9959 2.62047C14.9535 2.78905 14.8784 2.48709 14.8683 2.44033C14.868 2.43879 14.9121 2.4087 14.8886 2.34318C14.8749 2.20665 14.8688 2.43974 14.8683 2.44033C14.8617 2.41013 14.7735 2.38115 14.756 2.40555C14.7465 2.41889 14.7518 2.53982 14.7469 2.54448C14.629 2.65271 14.5109 2.68344 14.3914 2.6269C14.3893 2.62445 14.3925 2.48919 14.3875 2.48513C14.3183 2.42499 14.274 2.59046 14.2169 2.68871C14.1598 2.78691 14.1146 2.75402 14.0808 2.5218C14.0377 2.55104 13.9759 2.44838 13.9404 2.38608C13.9048 2.32379 13.8999 2.5871 13.8967 2.59231C13.7992 2.75892 13.7428 2.6082 13.6416 2.58475C13.5934 2.57314 13.498 2.61134 13.4459 2.64013C13.4047 2.66333 13.3799 2.60162 13.3419 2.64107C13.3368 2.64634 13.342 2.76358 13.3404 2.7681C13.2981 2.90837 13.3184 2.62176 13.3097 2.57057C13.278 2.38442 13.2584 2.28528 13.2042 2.37285C13.1917 2.39291 13.1552 2.80558 13.1324 2.82972C13.1028 2.86034 13.114 2.71242 13.0829 2.74825C13.0803 2.75118 13.0808 2.84244 13.0617 2.83841C12.9728 2.82094 12.8758 2.76784 12.7834 2.77698C12.7708 2.77788 12.787 2.92263 12.7687 2.92631C12.6831 2.94347 12.5893 2.93811 12.506 2.87036C12.4854 2.85323 12.4983 2.75188 12.4939 2.72179C12.4665 2.53971 12.4277 2.80426 12.4213 2.8093C12.2687 2.93644 12.1518 2.69702 11.9962 2.81101C11.9878 2.8177 11.9226 3.1013 11.8935 2.85807C11.8915 2.84189 11.8627 2.59304 11.8373 2.76318C11.8357 2.77383 11.8536 2.90194 11.8224 2.88888C11.7911 2.87585 11.7407 2.96141 11.6977 2.82065C11.6841 2.7763 11.6519 2.52807 11.6113 2.72595C11.6086 2.73976 11.5459 3.18719 11.5235 2.87849C11.5199 2.82767 11.5237 2.50099 11.4752 2.66848C11.466 2.70095 11.4828 2.77382 11.4584 2.81932C11.421 2.88945 11.3714 2.80195 11.3255 2.94748C11.3175 2.97324 11.2833 3.19497 11.256 3.02668C11.2517 3.00032 11.2598 2.89126 11.2454 2.87905C11.1766 2.82051 11.1047 2.89346 11.0349 2.818C11.0102 2.79148 11.0228 2.61517 10.997 2.56792C10.9713 2.52069 10.9193 2.47525 10.8924 2.55583C10.8654 2.63643 10.8949 2.91743 10.8545 2.93992C10.6788 3.03758 10.5048 2.87273 10.3294 2.84862C10.3034 2.84502 10.325 2.94557 10.2866 2.94748C10.1453 2.95496 9.90127 3.04924 9.77862 2.83558C9.68036 2.66445 9.80402 2.53417 9.72893 2.46453C9.6927 2.43131 9.65349 2.758 9.64474 2.76829C9.55929 2.87276 9.49991 2.72804 9.423 2.77244C9.40711 2.78166 9.42269 2.91407 9.40917 2.92045C9.363 2.94341 9.31448 2.88431 9.27036 2.89512C9.25056 2.90027 9.25421 3.00141 9.236 2.9936C9.19242 2.97609 9.15388 2.93358 9.1114 2.83879C9.10753 2.83015 9.13364 2.70435 9.1014 2.69967C9.04921 2.69246 8.98444 2.59895 8.92441 2.69551C8.90659 2.72456 8.90589 2.95569 8.8676 2.79607C8.85957 2.76273 8.86982 2.48519 8.82521 2.725C8.81771 2.76485 8.74278 3.08831 8.70601 2.87981C8.69631 2.82494 8.67155 2.59782 8.65013 2.63351C8.64723 2.63921 8.65886 2.76336 8.64111 2.77547C8.57855 2.81599 8.51299 2.80274 8.44872 2.84163C8.43156 2.85226 8.45712 2.98073 8.43154 2.99247C8.3612 3.02494 8.27338 2.99223 8.20459 2.95202C8.17923 2.93695 8.19676 2.83053 8.19492 2.81894C8.16524 2.63057 8.1477 2.88483 8.13785 2.89966C8.0766 2.98843 8.02996 2.869 7.9735 2.9006C7.95792 2.909 7.96896 3.03024 7.96586 3.04105C7.93369 3.14667 7.95765 2.92895 7.93729 2.90495C7.88026 2.837 7.81667 2.84674 7.75899 2.86223C7.7378 2.8681 7.76161 3.00867 7.7426 3.01231C7.63006 3.03654 7.51306 3.02309 7.40323 2.94559C7.38255 2.93074 7.39556 2.8225 7.39125 2.79777C7.36154 2.6248 7.318 2.86074 7.30798 2.88321C7.26243 2.98583 7.24474 2.89011 7.20452 2.90797C7.00801 2.99693 6.76537 2.93353 6.57988 2.89436C6.33816 2.84396 6.1506 2.74098 5.92009 2.76772C5.90544 2.76928 5.92022 2.91328 5.90759 2.91648C5.74454 2.95119 5.58402 2.89492 5.42065 2.93652C5.40724 2.93967 5.42657 3.07619 5.40505 3.08584C5.36091 3.10661 5.305 3.09919 5.26037 3.0556C5.23861 3.0346 5.2678 2.91746 5.24589 2.89871C5.19488 2.85479 5.14019 2.84507 5.08779 2.86696C5.06549 2.87657 5.09914 3.01618 5.07015 3.0178C4.87271 3.03165 4.6788 3.05569 4.47928 2.87489C4.4656 2.86248 4.4536 2.57872 4.42452 2.63314C4.42233 2.71189 4.42245 2.80452 4.42149 2.88869C4.13407 2.93404 3.84958 2.83567 3.56135 2.82046C3.5492 2.81985 3.5702 2.9702 3.54667 2.96978C3.4105 2.96756 3.27827 3.00921 3.13898 2.85977C3.12516 2.84516 3.13225 2.58066 3.09152 2.62066C3.08434 2.62796 3.023 2.66323 3.00714 2.72065C3.00499 2.72931 3.01618 2.85277 2.99641 2.85637C2.88155 2.87512 2.76118 2.84693 2.64651 2.7715C2.628 2.75909 2.64771 2.62762 2.63453 2.61764C2.54103 2.54784 2.43933 2.64779 2.34999 2.52842C2.29019 2.44804 2.31233 2.22078 2.28055 1.99708C2.27605 1.96552 2.23902 1.96051 2.23711 1.83036C2.23219 1.50307 2.25013 1.1447 2.24277 0.795842C2.24121 0.720701 2.19162 0.801632 2.22098 0.620051C2.22303 0.607898 2.25899 0.547633 2.26785 0.486034C2.27401 0.443446 2.2629 0.311079 2.27548 0.256562C2.28806 0.202095 2.30188 0.313053 2.32274 0.249001C2.34359 0.184156 2.33442 0.0335728 2.37605 0.0157477ZM13.7803 2.10765C13.7474 1.9812 13.7425 2.44434 13.7781 2.33354C13.7799 2.32763 13.782 2.11386 13.7803 2.10765ZM17.7632 2.0345C17.7201 1.83023 17.6907 2.13059 17.7211 2.28836C17.7514 2.44595 17.7763 2.09643 17.7632 2.0345ZM18.2094 1.88536C18.1591 1.7243 18.1512 2.38105 18.2051 2.24829C18.2082 2.24078 18.2124 1.89472 18.2094 1.88536ZM2.42792 1.93338C2.42747 1.92723 2.40085 1.92123 2.40021 1.92733C2.38604 2.07442 2.43926 2.0863 2.42792 1.93338ZM18.6523 1.72299C18.6366 1.63415 18.5914 1.73671 18.6109 1.84718C18.6266 1.93605 18.6718 1.83351 18.6523 1.72299ZM12.0631 1.61336C12.0626 1.60646 12.0435 1.60025 12.0439 1.63926C12.0452 1.76491 12.0718 1.72945 12.0631 1.61336ZM19.4049 1.71543C19.2937 1.69071 19.2263 1.1482 19.3474 1.20942C19.3693 1.2205 19.3002 1.38242 19.3281 1.43133C19.3791 1.52044 19.413 1.17981 19.4652 1.36234C19.4746 1.39575 19.4113 1.71805 19.4047 1.71619C19.4048 1.71594 19.4049 1.71569 19.4049 1.71543ZM13.7614 1.55136C13.7607 1.54524 13.7343 1.53943 13.7336 1.5455C13.7193 1.69254 13.7726 1.70432 13.7614 1.55136ZM10.9495 1.32699C10.948 1.31394 10.8867 1.30174 10.8847 1.31376C10.8528 1.5542 10.9767 1.57959 10.9495 1.32699ZM15.5406 1.21245C15.5694 1.06453 15.6039 1.04711 15.6269 1.23286C15.5983 1.223 15.5694 1.22155 15.5406 1.21245Z" fill="#69A13B"/>
</g>
</svg>
